<?xml version="1.0" standalone="no"?><!DOCTYPE svg PUBLIC "-//W3C//DTD SVG 1.1//EN" "http://www.w3.org/Graphics/SVG/1.1/DTD/svg11.dtd"><svg t="1673717851444" class="icon" viewBox="0 0 1024 1024" version="1.1" xmlns="http://www.w3.org/2000/svg" p-id="7330" xmlns:xlink="http://www.w3.org/1999/xlink" width="128" height="128"><path d="M327.856104 692.645576a256 256 0 1 0 362.032353-362.044991 256 256 0 1 0-362.032353 362.044991Z" fill="#EF6565" p-id="7331" data-spm-anchor-id="a313x.7781069.0.i9" class=""></path><path d="M509.6 512.6c-17.2 13.2-33.1 26.6-55.6 33-27.9 7.8-58.3 5.9-85-5.6-14.9-6.4-28.6-15.7-40-27.2-49.9-49.9-49.9-130.9 0-180.9 0.3-0.3 0.6-0.5 0.8-0.8l-0.3-0.3c-0.3 0.3-0.6 0.5-0.8 0.8-99.9 99.9-99.9 262 0 361.9 98.4 98.4 257.1 99.9 357.3 4.5 1.6-1.4 3.1-2.9 4.7-4.4 49.9-49.9 49.9-130.9 0-180.9-44.3-44.3-111.3-46.6-162.7-13.3-6.6 4.3-12.6 8.7-18.4 13.2z" fill="#1afa29" p-id="7332" data-spm-anchor-id="a313x.7781069.0.i10" class="selected"></path><path d="M390.696192 450.062409a40 40 0 1 0 56.567556-56.56953 40 40 0 1 0-56.567556 56.56953Z" fill="#1afa29" p-id="7333" data-spm-anchor-id="a313x.7781069.0.i11" class="selected"></path><path d="M571.574707 630.960539a40 40 0 1 0 56.567555-56.569529 40 40 0 1 0-56.567555 56.569529Z" fill="#EF6565" p-id="7334"></path><path d="M643.486 787.62l141.49-141.49 14.85 14.85-141.491 141.49zM665.3 809.42l141.49-141.49 14.85 14.85-141.49 141.49zM687.044 831.15l141.49-141.491 14.85 14.85-141.491 141.49zM410.3 807.9h200.1v21H410.3zM410.3 838.7h200.1v21H410.3zM520.3 869.5h90v21h-90zM410.3 869.5h90v21h-90z" fill="#FC7777" p-id="7335"></path><path d="M172.675 706.61l14.85-14.85 64.204 64.205-14.85 14.85zM251.04 784.974l14.849-14.849 63.073 63.074-14.849 14.849zM194.446 684.907l14.849-14.849 64.204 64.205-14.849 14.849zM272.81 763.272l14.85-14.85 63.073 63.074-14.85 14.85z" fill="#FC7777" p-id="7336"></path><path d="M216.245 663.093l14.85-14.85 64.204 64.205-14.85 14.85zM294.61 741.458l14.85-14.85 63.073 63.074-14.85 14.849z" fill="#FC7777" p-id="7337"></path><path d="M197.6 412.8h21v200.1h-21zM136 412.8h21v200.1h-21zM166.7 521.5h21v91.3h-21zM166.7 412.8h21v88.7h-21z" fill="#FC7777" p-id="7338"></path><path d="M197.306 340.345l141.49-141.491 14.85 14.849-141.491 141.49zM175.577 318.51l141.49-141.491 14.85 14.849-141.491 141.49zM219.053 362.008l63.214-63.215 14.85 14.85-63.215 63.214zM296.463 284.648l64.134-64.134 14.849 14.849-64.134 64.134z" fill="#FC7777" p-id="7339"></path><path d="M688.208 190.97l14.85-14.85 141.49 141.49-14.85 14.85zM644.714 234.563l14.85-14.849 64.91 64.912-14.848 14.849zM723.786 313.635l14.849-14.849L801 361.152l-14.849 14.85z" fill="#FC7777" p-id="7340"></path><path d="M666.555 212.89l14.85-14.849 64.911 64.912-14.849 14.849zM745.627 291.962l14.85-14.849 62.365 62.366-14.849 14.85z" fill="#FC7777" p-id="7341"></path><path d="M836.2 414.2h21v200.1h-21zM805.4 414.2h21v88.6h-21zM805.4 522.8h21v91.4h-21z" fill="#FC7777" p-id="7342"></path><path d="M867 414.2h21v88.6h-21zM867 522.8h21v91.4h-21z" fill="#FC7777" p-id="7343"></path><path d="M410.3 194.7h200.1v21H410.3zM410.3 133.1h90v21h-90zM520.3 133.1h90v21h-90z" fill="#FC7777" p-id="7344"></path><path d="M410.3 163.9h90v21h-90zM520.3 163.9h90v21h-90z" fill="#FC7777" p-id="7345"></path></svg>