<?xml version="1.0" standalone="no"?><!DOCTYPE svg PUBLIC "-//W3C//DTD SVG 1.1//EN" "http://www.w3.org/Graphics/SVG/1.1/DTD/svg11.dtd"><svg t="1673114077860" class="icon" viewBox="0 0 1024 1024" version="1.1" xmlns="http://www.w3.org/2000/svg" p-id="17778" xmlns:xlink="http://www.w3.org/1999/xlink" width="128" height="128"><path d="M288 768.032c-4-20.512-14.304-32-32-32H64c-17.696 0-27.488 9.504-32 32l-28.992 128c-7.008 23.008 0.512 32 20.992 32h272c22.624 0 28-8.512 20.992-32l-28.992-128zM640.128 768.032c-4-20.512-14.304-32-32-32h-192c-17.696 0-27.488 9.504-32 32l-28.992 128c-7.008 23.008 0.512 32 20.992 32h272c22.624 0 28-8.512 20.992-32l-28.992-128zM640.128 320.032c-4-20.512-14.304-32-32-32h-192c-17.696 0-27.488 9.504-32 32l-28.992 128c-7.008 23.008 0.512 32 20.992 32h272c22.624 0 28-8.512 20.992-32l-28.992-128zM991.552 768.032c-4-20.512-14.304-32-32-32h-192c-17.696 0-27.488 9.504-32 32l-28.992 128c-7.008 23.008 0.512 32 20.992 32h272c22.624 0 28-8.512 20.992-32l-28.992-128zM448.128 544.032c-4-20.512-14.304-32-32-32h-192c-17.696 0-27.488 9.504-32 32l-28.992 128c-7.008 23.008 0.512 32 20.992 32h272c22.624 0 28-8.512 20.992-32l-28.992-128zM831.008 544.032c-4-20.512-14.304-32-32-32h-192c-17.696 0-27.488 9.504-32 32l-28.992 128c-7.008 23.008 0.512 32 20.992 32h272c22.624 0 28-8.512 20.992-32l-28.992-128z" fill="#EACA44" p-id="17779"></path><path d="M256 736.032H64c-17.696 0-27.488 9.504-32 32l-1.28 5.664c5.44-3.52 11.808-5.664 20.032-5.664h218.432c8.256 0 14.72 2.464 20.224 6.272L288 768.032c-4-20.512-14.304-32-32-32zM608.224 736.032h-192c-17.696 0-27.488 9.504-32 32l-1.28 5.664c5.44-3.52 11.808-5.664 20.032-5.664h218.432c8.256 0 14.72 2.464 20.224 6.272l-1.408-6.272c-4-20.512-14.304-32-32-32zM991.648 768.032c-4-20.512-14.304-32-32-32h-192c-17.696 0-27.488 9.504-32 32l-1.28 5.664c5.44-3.52 11.808-5.664 20.032-5.664h218.432c8.256 0 14.72 2.464 20.224 6.272l-1.408-6.272zM833.28 544.032c-4-20.512-14.304-32-32-32h-192c-17.696 0-27.488 9.504-32 32l-1.28 5.664c5.44-3.52 11.808-5.664 20.032-5.664h218.432c8.256 0 14.72 2.464 20.224 6.272l-1.408-6.272zM449.28 544.032c-4-20.512-14.304-32-32-32h-192c-17.696 0-27.488 9.504-32 32l-1.28 5.664c5.44-3.52 11.808-5.664 20.032-5.664h218.432c8.256 0 14.72 2.464 20.224 6.272l-1.408-6.272zM641.28 320.032c-4-20.512-14.304-32-32-32h-192c-17.696 0-27.488 9.504-32 32l-1.28 5.664c5.44-3.52 11.808-5.664 20.032-5.664h218.432c8.256 0 14.72 2.464 20.224 6.272l-1.408-6.272z" fill="#FFFFFF" p-id="17780"></path><path d="M312 216.032l72-24-72-24L288 96.032l-24 72-72 24 72 24 24 72zM784 304.032l48-16-48-16-16-48-16 48-48 16 48 16 16 48z" fill="#EACA44" p-id="17781"></path></svg>