<?xml version="1.0" standalone="no"?><!DOCTYPE svg PUBLIC "-//W3C//DTD SVG 1.1//EN" "http://www.w3.org/Graphics/SVG/1.1/DTD/svg11.dtd"><svg t="1673147530752" class="icon" viewBox="0 0 1024 1024" version="1.1" xmlns="http://www.w3.org/2000/svg" p-id="2157" xmlns:xlink="http://www.w3.org/1999/xlink" width="128" height="128"><path d="M849.664 553.6768c-7.3216-103.936-64.1024-199.8336-151.9104-256.512-14.2848-9.216-33.28-5.12-42.496 9.1648a30.72 30.72 0 0 0 9.1648 42.496c71.68 46.2848 118.016 124.4672 123.9552 209.2032a30.73536 30.73536 0 0 0 30.6176 28.5696c0.7168 0 1.4336 0 2.2016-0.0512 16.896-1.2288 29.6448-15.9232 28.4672-32.8704zM647.5776 816.0256c-39.7312 21.76-84.8384 33.28-130.4064 33.28-46.2848 0-91.9552-11.8272-132.096-34.2016a30.68928 30.68928 0 0 0-41.7792 11.8784 30.7456 30.7456 0 0 0 11.8784 41.7792c49.2544 27.4432 105.3184 41.984 161.9968 41.984 55.9104 0 111.2064-14.1312 159.9488-40.8064a30.68928 30.68928 0 0 0 12.1856-41.6768 30.6688 30.6688 0 0 0-41.728-12.2368zM382.5152 304.5888c-9.0112-14.3872-27.9552-18.688-42.3424-9.6768C248.064 352.768 189.7984 451.9424 184.32 560.2816a30.66368 30.66368 0 0 0 29.1328 32.2048 30.74048 30.74048 0 0 0 32.256-29.1328c4.4544-88.32 52.0192-169.2672 127.1808-216.4736 14.2848-8.96 18.6368-27.904 9.6256-42.2912z" fill="#B11EFF" p-id="2158"></path><path d="M517.1712 467.0464c-103.9872 0-188.5696-84.5824-188.5696-188.5696s84.5824-188.5696 188.5696-188.5696 188.5696 84.5824 188.5696 188.5696-84.5824 188.5696-188.5696 188.5696z m0-315.7504c-70.0928 0-127.1296 57.0368-127.1296 127.1296s57.0368 127.1296 127.1296 127.1296 127.1296-57.0368 127.1296-127.1296-57.0368-127.1296-127.1296-127.1296z"  p-id="2159"></path><path d="M248.0128 915.8144c-103.9872 0-188.5696-84.5824-188.5696-188.5696s84.5824-188.5696 188.5696-188.5696 188.5696 84.5824 188.5696 188.5696c0.0512 103.9872-84.5312 188.5696-188.5696 188.5696z m0-315.6992c-70.0928 0-127.1296 57.0368-127.1296 127.1296s57.0368 127.1296 127.1296 127.1296 127.1296-57.0368 127.1296-127.1296-56.9856-127.1296-127.1296-127.1296z"  p-id="2160"></path><path d="M781.824 915.8144c-103.9872 0-188.5696-84.5824-188.5696-188.5696s84.5824-188.5696 188.5696-188.5696 188.5696 84.5824 188.5696 188.5696c0 39.0144-11.8272 76.4416-34.1504 108.2368a30.69952 30.69952 0 0 1-42.8032 7.4752 30.70976 30.70976 0 0 1-7.4752-42.8032c15.0528-21.4016 22.9888-46.6432 22.9888-72.96 0-70.0928-57.0368-127.1296-127.1296-127.1296s-127.1296 57.0368-127.1296 127.1296 57.0368 127.1296 127.1296 127.1296c16.9472 0 30.72 13.7728 30.72 30.72s-13.7728 30.7712-30.72 30.7712z" p-id="2161"></path></svg>