<?xml version="1.0" standalone="no"?><!DOCTYPE svg PUBLIC "-//W3C//DTD SVG 1.1//EN" "http://www.w3.org/Graphics/SVG/1.1/DTD/svg11.dtd"><svg t="1674110546070" class="icon" viewBox="0 0 1024 1024" version="1.1" xmlns="http://www.w3.org/2000/svg" p-id="12218" xmlns:xlink="http://www.w3.org/1999/xlink" width="128" height="128"><path d="M923.6 107.2c-0.8-3.4-3.2-6-6.6-6.8-108.8-26.6-360.2 68.2-496.4 204.4-26.6 26.6-48.4 52.8-66.2 78.2-42-3.8-84-0.6-119.8 15-101 44.4-130.4 160.4-138.6 210.2-2 11.8 7.8 22 19.6 20.8l162.2-17.8c0.2 15.6 1.2 28 2.2 36.6 0.8 8.4 4.6 16.2 10.6 22.2l62.8 62.8c6 6 13.8 9.8 22.2 10.6 8.6 1 21 2 36.4 2.2l-17.8 162c-1.2 11.8 9 21.6 20.8 19.6 49.8-8 166-37.4 210.2-138.4 15.6-35.8 18.8-77.6 15.2-119.4 25.4-17.8 51.8-39.6 78.4-66.2 136.8-136 231-381.8 204.8-496zM597.2 427c-33.4-33.4-33.4-87.4 0-120.8 33.4-33.4 87.4-33.4 120.8 0 33.4 33.4 33.4 87.4 0 120.8-33.4 33.4-87.4 33.4-120.8 0z" p-id="12219"></path><path d="M349 761c-8.4 8.4-23.4 13.2-39.6 16-36.4 6.2-68.2-25.6-62-62 2.8-16.2 7.4-31.2 15.8-39.4l0.2-0.2c4.6-4.6 0.8-12.2-5.6-11.4-19.6 2.4-38.8 11.2-53.8 26.2-36 36-39.4 169.6-39.4 169.6s133.8-3.4 169.8-39.4c15.2-15.2 23.8-34.2 26.2-53.8 0.6-6.4-7.2-10.2-11.6-5.6z" p-id="12220"></path></svg>