<?xml version="1.0" standalone="no"?><!DOCTYPE svg PUBLIC "-//W3C//DTD SVG 1.1//EN" "http://www.w3.org/Graphics/SVG/1.1/DTD/svg11.dtd"><svg t="1673147489020" class="icon" viewBox="0 0 1024 1024" version="1.1" xmlns="http://www.w3.org/2000/svg" p-id="1837" xmlns:xlink="http://www.w3.org/1999/xlink" width="128" height="128"><path d="M770.56 928.4608H388.4032c-16.9472 0-30.72-13.7728-30.72-30.72s13.7728-30.72 30.72-30.72h382.1056c15.616 0 28.8768-11.2128 32.3584-27.2384l72.2944-335.1552c3.4304-15.7696-0.3584-31.9488-10.3424-44.3392-9.472-11.7248-22.7328-18.176-37.4272-18.176h-239.104a30.72 30.72 0 0 1-28.16-43.008c62.1056-142.2848 40.3456-201.1136 28.1088-219.8016-13.7216-20.9408-33.792-24.1152-44.4928-24.1152-25.8048 0-35.9936 25.088-47.8208 77.7216-1.5872 6.9632-3.0208 13.4656-4.5568 19.3536-42.1888 161.5872-149.3504 219.136-235.6224 219.136H192.2048c-17.8688 0-32.4096 15.36-32.4096 34.2016v327.2192c0 18.8416 14.5408 34.2016 32.4096 34.2016h58.9312c16.9472 0 30.72 13.7728 30.72 30.72s-13.7728 30.72-30.72 30.72H192.2048c-51.7632 0-93.8496-42.9056-93.8496-95.6416V505.6c0-52.736 42.0864-95.6416 93.8496-95.6416h63.5392c30.72 0 134.1952-12.4928 176.128-173.1584 1.3824-5.2736 2.6624-11.1104 4.096-17.3568 9.8816-43.9296 28.3136-125.696 107.776-125.696 39.3728 0 74.3424 18.8928 95.8976 51.8656 24.2688 37.0688 41.1136 107.1616-5.888 235.008h193.6384c33.1264 0 64.2048 14.9504 85.248 41.0112 21.7088 26.88 29.952 61.8496 22.6304 95.8464l-72.2944 335.1552c-9.472 43.9808-48.3328 75.8272-92.416 75.8272z"  p-id="1838"></path><path d="M269.6192 804.2496c-16.9472 0-30.72-13.7728-30.72-30.72v-193.0752c0-16.9472 13.7728-30.72 30.72-30.72s30.72 13.7728 30.72 30.72v193.0752c0 16.9472-13.7728 30.72-30.72 30.72z" fill="#B11EFF" p-id="1839"></path></svg>