<?xml version="1.0" standalone="no"?><!DOCTYPE svg PUBLIC "-//W3C//DTD SVG 1.1//EN" "http://www.w3.org/Graphics/SVG/1.1/DTD/svg11.dtd"><svg t="1673703760527" class="icon" viewBox="0 0 1024 1024" version="1.1" xmlns="http://www.w3.org/2000/svg" p-id="2679" xmlns:xlink="http://www.w3.org/1999/xlink" width="128" height="128"><path d="M448.362667 166.826667l113.6 0.170666a64 64 0 0 1 63.893333 63.914667l0.042667 18.517333a301.461333 301.461333 0 0 1 62.101333 34.88l15.210667-8.746666a64 64 0 0 1 87.296 23.381333l56.938666 98.304a64 64 0 0 1-19.989333 85.397333l-3.477333 2.133334-15.274667 8.810666c2.624 24.234667 2.304 48.853333-1.130667 73.322667l10.794667 6.250667a64 64 0 0 1 25.216 84.117333l-1.770667 3.306667-53.333333 92.373333a64 64 0 0 1-84.117333 25.216l-3.328-1.792-14.741334-8.533333a298.538667 298.538667 0 0 1-59.626666 33.28v25.386666a64 64 0 0 1-59.989334 63.957334l-4.074666 0.128-113.6-0.170667a64 64 0 0 1-63.893334-63.893333l-0.064-30.613334a302.613333 302.613333 0 0 1-50.069333-29.696l-27.221333 15.658667a64 64 0 0 1-87.296-23.402667l-56.938667-98.282666a64 64 0 0 1 19.989333-85.418667l3.477334-2.133333 27.690666-15.936c-2.133333-20.266667-2.24-40.768-0.192-61.226667l-30.741333-17.770667A64 64 0 0 1 158.506667 393.6l1.792-3.306667 53.333333-92.373333a64 64 0 0 1 84.117333-25.216l3.306667 1.792 26.794667 15.466667a297.984 297.984 0 0 1 56.426666-34.666667v-24.362667a64 64 0 0 1 59.989334-63.978666l4.074666-0.128z m127.296 247.722666a127.829333 127.829333 0 0 0-174.741334 46.826667 128.170667 128.170667 0 0 0 46.869334 174.933333 127.829333 127.829333 0 0 0 174.762666-46.805333 128.170667 128.170667 0 0 0-46.890666-174.933333z m-119.317334 78.805334a63.829333 63.829333 0 0 1 83.989334-25.173334l3.306666 1.770667 3.2 1.984a64.170667 64.170667 0 0 1 20.266667 85.589333 63.829333 63.829333 0 0 1-87.296 23.402667 64.170667 64.170667 0 0 1-23.466667-87.573333z" p-id="2680"></path></svg>