<?xml version="1.0" standalone="no"?><!DOCTYPE svg PUBLIC "-//W3C//DTD SVG 1.1//EN" "http://www.w3.org/Graphics/SVG/1.1/DTD/svg11.dtd"><svg t="1673058207548" class="icon" viewBox="0 0 1024 1024" version="1.1" xmlns="http://www.w3.org/2000/svg" p-id="6027" xmlns:xlink="http://www.w3.org/1999/xlink" width="128" height="128"><path d="M876.3 848.9h-19V363.5c0-21.6-17.3-39.1-38.6-39.1H689.9c-21.3 0-38.6 17.5-38.6 39.1v485.4H614V178c0-22.5-17.3-40.7-38.7-40.7H446.2c-21.4 0-38.7 18.2-38.7 40.7v670.9h-37.2V551.3c0-21.9-17.3-39.7-38.6-39.7H202.9c-21.3 0-38.6 17.8-38.6 39.7v297.6h-19.2c-10.3 0-18.7 8.4-18.7 18.7s8.4 18.7 18.7 18.7h731.2c10.4 0 18.7-8.4 18.7-18.7s-8.3-18.7-18.7-18.7z" p-id="6028" fill="#f34806"></path></svg>