<?xml version="1.0" standalone="no"?><!DOCTYPE svg PUBLIC "-//W3C//DTD SVG 1.1//EN" "http://www.w3.org/Graphics/SVG/1.1/DTD/svg11.dtd"><svg t="1673716561271" class="icon" viewBox="0 0 1024 1024" version="1.1" xmlns="http://www.w3.org/2000/svg" p-id="5472" xmlns:xlink="http://www.w3.org/1999/xlink" width="128" height="128"><path d="M296 440c-44.1 0-80 35.9-80 80s35.9 80 80 80 80-35.9 80-80-35.9-80-80-80z" fill="#FF9A98" p-id="5473"></path><path d="M960 512c0-247-201-448-448-448S64 265 64 512c0 1.8 0.1 3.5 0.1 5.3 0 0.9-0.1 1.8-0.1 2.7h0.2C68.5 763.3 267.7 960 512 960c236.2 0 430.1-183.7 446.7-415.7 0.1-0.8 0.1-1.6 0.2-2.3 0.4-4.6 0.5-9.3 0.7-13.9 0.1-2.7 0.4-5.3 0.4-8h-0.2c0-2.8 0.2-5.4 0.2-8.1z m-152 8c0 44.1-35.9 80-80 80s-80-35.9-80-80 35.9-80 80-80 80 35.9 80 80zM512 928C284.4 928 99 744.3 96.1 517.3 97.6 408.3 186.6 320 296 320c110.3 0 200 89.7 200 200 0 127.9 104.1 232 232 232 62.9 0 119.9-25.2 161.7-66-66 142.7-210.4 242-377.7 242z" fill="#F6554D" p-id="5474"></path></svg>