<?xml version="1.0" standalone="no"?><!DOCTYPE svg PUBLIC "-//W3C//DTD SVG 1.1//EN" "http://www.w3.org/Graphics/SVG/1.1/DTD/svg11.dtd"><svg t="1673720193686" class="icon" viewBox="0 0 1024 1024" version="1.1" xmlns="http://www.w3.org/2000/svg" p-id="2735" xmlns:xlink="http://www.w3.org/1999/xlink" width="128" height="128"><path d="M204.324 102.904c-3.896 46.256-52.096 53.56-52.096 53.56 41.388 1.948 51.7 56.236 51.7 56.236 0.884-38.708 53.284-56.808 53.284-56.808-39.256-2.352-52.888-52.988-52.888-52.988z" fill="#D7E057" p-id="2736"></path><path d="M257.568 149.904c-34.42-2.06-47.328-48.104-47.456-48.568a6 6 0 1 0-11.768 1.06c-3.44 40.864-45.252 47.856-47.016 48.128a6 6 0 0 0 0.616 11.928c36.112 1.704 45.996 50.876 46.092 51.376a6 6 0 0 0 11.892-0.992c0.776-34.036 48.764-51.108 49.248-51.276a6 6 0 0 0-1.608-11.656zM203.304 191.284c-5.428-12.524-14.836-27.632-30.348-35.508 11.724-5.62 25.636-15.652 32.808-33.088 6.204 12.28 16.8 27.52 33.34 34.892-12.032 6.556-27.696 17.62-35.8 33.704z" fill="#d81e06" p-id="2737" data-spm-anchor-id="a313x.7781069.0.i16" class="selected"></path><path d="M117.528 170.828c-2.756 32.716-36.848 37.884-36.848 37.884 29.272 1.376 36.568 39.776 36.568 39.776 0.624-27.376 37.688-40.18 37.688-40.18-27.764-1.664-37.408-37.48-37.408-37.48z" fill="#D7E057" p-id="2738"></path><path d="M155.296 202.316c-23.064-1.384-31.888-32.744-31.976-33.06a6 6 0 0 0-11.768 1.064c-2.316 27.48-30.588 32.26-31.768 32.448a6 6 0 0 0 0.616 11.928c24.14 1.136 30.896 34.58 30.956 34.908a6 6 0 0 0 11.892-0.984c0.52-22.832 33.328-34.532 33.648-34.644a6 6 0 0 0-1.6-11.66z m-38.34 27.18c-3.696-7.544-9.36-15.788-17.788-21.12 7.424-4.164 14.788-10.52 19.484-19.664 4.228 7.496 10.616 15.816 19.764 20.896-7.4 4.4-15.956 10.96-21.46 19.888z" fill="#d81e06" p-id="2739" data-spm-anchor-id="a313x.7781069.0.i18" class="selected"></path><path d="M117.528 64.196c-2.756 32.716-36.848 37.884-36.848 37.884 29.272 1.376 36.568 39.776 36.568 39.776 0.624-27.376 37.688-40.18 37.688-40.18-27.764-1.664-37.408-37.48-37.408-37.48z" fill="#D7E057" p-id="2740"></path><path d="M155.296 95.688c-23.064-1.384-31.888-32.748-31.976-33.064a6 6 0 0 0-11.768 1.064c-2.316 27.484-30.588 32.264-31.768 32.452a6 6 0 0 0 0.616 11.928c24.14 1.136 30.896 34.58 30.956 34.908a6 6 0 0 0 11.896-0.984c0.52-22.836 33.324-34.532 33.648-34.644a6 6 0 0 0-1.604-11.66z m-38.34 27.176c-3.696-7.54-9.36-15.788-17.788-21.116 7.42-4.164 14.788-10.52 19.484-19.668 4.228 7.496 10.616 15.82 19.764 20.9-7.4 4.4-15.956 10.952-21.46 19.884z" fill="#d81e06" p-id="2741" data-spm-anchor-id="a313x.7781069.0.i17" class="selected"></path><path d="M534.648 131.88a233.64 233.64 0 0 0-5.328-0.076c-1.8 0-3.564 0.04-5.328 0.076-5.56 0.152-11.076 0.5-16.52 1.072a187.08 187.08 0 0 0-9.276 1.188l-5.02 0.804a215.572 215.572 0 0 0-14.876 3.22c-1.608 0.384-3.26 0.844-4.868 1.304-1.072 0.268-2.148 0.576-3.22 0.92a205.152 205.152 0 0 0-15.756 5.368 247.76 247.76 0 0 0-9.16 3.832 171.12 171.12 0 0 0-8.932 4.256c-1.496 0.728-2.952 1.496-4.372 2.26-2.912 1.496-5.752 3.144-8.584 4.828-2.836 1.688-5.596 3.412-8.32 5.252-1.38 0.88-2.72 1.8-4.064 2.76-1.344 0.92-2.684 1.876-3.988 2.836-1.304 0.96-2.608 1.956-3.912 2.952-1.304 0.996-2.568 1.992-3.832 3.028-1.072 0.844-2.108 1.688-3.144 2.568a207.416 207.416 0 0 0-13.188 12.112c-1.148 1.152-2.26 2.3-3.412 3.488l-0.116 0.116c-1.112 1.188-2.224 2.376-3.336 3.604-1.612 1.764-3.22 3.564-4.752 5.404-1.072 1.264-2.108 2.492-3.144 3.796a181.552 181.552 0 0 0-6.556 8.548c-0.768 1.036-1.496 2.108-2.26 3.18-0.844 1.188-1.648 2.416-2.492 3.64-1.88 2.836-3.72 5.752-5.484 8.74a178.812 178.812 0 0 0-9.276 17.404c-0.728 1.456-1.416 2.992-2.072 4.484a100.32 100.32 0 0 0-1.956 4.564c-0.612 1.456-1.228 2.952-1.804 4.448a206.984 206.984 0 0 0-9.772 33.236 39.032 39.032 0 0 0-0.576 2.992c-0.192 0.88-0.344 1.764-0.5 2.644a194.968 194.968 0 0 0-2.532 20.164c-0.116 1.264-0.192 2.532-0.268 3.832a211.492 211.492 0 0 0-0.344 12.076c0 114.308 92.688 207 207 207s207 92.692 207 207c0 112.508-89.816 204.088-201.672 206.924 226.204-2.796 408.672-187.028 408.672-413.924S760.856 134.68 534.648 131.88z" fill="#1afa29" p-id="2742" data-spm-anchor-id="a313x.7781069.0.i8" class=""></path><path d="M828.08 250.588c-78.116-79.048-182.3-123.336-293.308-124.712l-0.464-0.008a229.292 229.292 0 0 0-9.952 0l-0.48 0.008-0.048 0.004a221.44 221.44 0 0 0-16.948 1.1c-3.204 0.316-6.404 0.752-9.632 1.232l-5.156 0.828a209.164 209.164 0 0 0-15.18 3.288c-1.696 0.404-3.432 0.888-4.916 1.316-1.204 0.296-2.412 0.644-3.476 0.988a212.136 212.136 0 0 0-16.264 5.544c-3.18 1.252-6.284 2.552-9.388 3.924-3.212 1.424-6.32 2.908-9.132 4.348-1.572 0.764-3.104 1.572-4.476 2.316-3.136 1.604-6.14 3.36-8.916 5.012-3.196 1.9-6.012 3.676-8.484 5.352-1.468 0.936-2.892 1.916-4.22 2.864-1.4 0.956-2.796 1.956-4.148 2.948-1.232 0.908-2.46 1.844-4 3.024-1.36 1.04-2.676 2.08-3.9 3.08-1.136 0.896-2.236 1.788-3.296 2.696a214.116 214.116 0 0 0-16.944 15.916l-0.288 0.288c-1.132 1.212-2.264 2.42-3.384 3.66-1.672 1.832-3.344 3.7-4.896 5.568-1.116 1.316-2.188 2.588-3.208 3.876a182.644 182.644 0 0 0-8.232 10.876l-0.84 1.188c-0.548 0.768-1.08 1.56-1.616 2.352l-0.984 1.444a204.564 204.564 0 0 0-5.6 8.924 189.332 189.332 0 0 0-9.524 17.852 99.36 99.36 0 0 0-2.148 4.648c-0.732 1.584-1.424 3.216-2.036 4.748-0.636 1.512-1.272 3.068-1.868 4.612a212.848 212.848 0 0 0-10.024 34.048 36.368 36.368 0 0 0-0.592 3.072 200.456 200.456 0 0 0-3.14 23.536c-0.12 1.328-0.204 2.66-0.284 4.032a216.192 216.192 0 0 0-0.356 12.42c0 117.448 95.552 213 213 213 110.832 0 201 90.168 201 201 0 108.052-87.848 198.188-195.824 200.92a6 6 0 0 0 0.152 12h0.076c111.056-1.376 215.24-45.66 293.356-124.708 78.184-79.108 121.244-183.952 121.244-295.216s-43.076-216.096-121.256-295.208z m-200.004 691.02a213.584 213.584 0 0 0 53.644-40.024c39.076-40.02 60.596-92.856 60.596-148.78 0-117.448-95.552-213-213-213-110.832 0-201-90.168-201-201a202.76 202.76 0 0 1 0.596-15.476c0.484-6.584 1.308-13.156 2.46-19.58 0.14-0.796 0.276-1.596 0.516-2.76 0.128-0.848 0.296-1.696 0.524-2.692a201.488 201.488 0 0 1 9.496-32.28c0.552-1.436 1.144-2.876 1.772-4.376 0.572-1.432 1.184-2.876 1.884-4.392 0.612-1.404 1.256-2.844 1.992-4.32l1.796-3.74a172 172 0 0 1 4.788-9.016c0.772-1.368 1.584-2.764 2.436-4.164 1.608-2.728 3.4-5.58 5.256-8.388l0.98-1.44c0.488-0.72 0.968-1.432 1.448-2.112l0.888-1.256c0.436-0.624 0.868-1.244 1.352-1.896a173.2 173.2 0 0 1 6.392-8.332c0.996-1.252 1.988-2.432 3.056-3.692a155.8 155.8 0 0 1 4.592-5.22c1.088-1.2 2.176-2.364 3.32-3.576a202.044 202.044 0 0 1 16.172-15.2c0.976-0.832 1.948-1.624 3.056-2.496 1.208-0.992 2.424-1.944 3.672-2.9l0.32-0.248c1.168-0.892 2.332-1.78 3.504-2.644 1.244-0.916 2.532-1.836 3.916-2.784 1.256-0.9 2.512-1.76 3.936-2.676 2.408-1.624 5.032-3.28 8.024-5.064a153.528 153.528 0 0 1 8.376-4.712c1.344-0.728 2.724-1.452 4.248-2.2a170.856 170.856 0 0 1 8.624-4.104 246.116 246.116 0 0 1 8.888-3.724 204.864 204.864 0 0 1 15.432-5.252c0.94-0.304 1.884-0.576 3.04-0.864 1.52-0.436 3.08-0.876 4.7-1.26a201.308 201.308 0 0 1 14.324-3.108l4.972-0.796c2.972-0.44 5.98-0.852 9.02-1.152a209.204 209.204 0 0 1 16.036-1.044l0.456-0.012a219.74 219.74 0 0 1 9.468 0l0.512 0.012c222.076 2.752 402.748 185.744 402.748 407.924 0.016 190-132.092 351.336-309.228 395.816z" fill="#3A312A" p-id="2743"></path><path d="M529.32 545.804c-114.312 0-207-92.688-207-207 0-112.508 89.816-204.088 201.672-206.924-187.048 2.316-344.18 128.688-392.98 300.656l-11.592 54.988a417.368 417.368 0 0 0-4.1 58.28c0 226.896 182.468 411.124 408.672 413.924 1.764 0.04 3.528 0.076 5.328 0.076 1.8 0 3.564-0.04 5.328-0.076 111.856-2.836 201.672-94.416 201.672-206.924 0-114.308-92.688-207-207-207z" fill="#d81e06" p-id="2744" data-spm-anchor-id="a313x.7781069.0.i9" class=""></path><path d="M529.32 539.804c-110.832 0-201-90.168-201-201 0-108.052 87.844-198.188 195.824-200.928a6 6 0 0 0-0.152-11.996h-0.072c-92.152 1.14-179.268 31.564-251.936 87.968C201.56 268.512 149.448 345.592 125.24 430.9a6 6 0 0 0 4.132 7.412 6.024 6.024 0 0 0 7.412-4.136c40.12-141.376 154.592-248.788 293.4-283.976a213.44 213.44 0 0 0-53.264 39.824C337.84 230.044 316.32 282.88 316.32 338.804c0 117.448 95.552 213 213 213 110.832 0 201 90.168 201 201 0 108.052-87.848 198.188-195.804 200.92-3.432 0.08-6.868 0.08-10.448 0-222.076-2.744-402.748-185.736-402.748-407.92 0-19.084 1.36-38.408 4.044-57.444a6 6 0 1 0-11.884-1.672c-2.76 19.584-4.16 39.476-4.16 59.116 0 111.26 43.06 216.104 121.24 295.216 78.12 79.048 182.3 123.332 293.308 124.708 1.804 0.04 3.608 0.08 5.448 0.08 1.848 0 3.656-0.04 5.48-0.08 55.736-1.416 107.916-24.196 146.924-64.14 39.076-40.02 60.596-92.856 60.596-148.78 0.004-117.452-95.548-213.004-212.996-213.004z" fill="#3A312A" p-id="2745"></path><path d="M530.588 337.536m-70.268 0a70.268 70.268 0 1 0 140.536 0 70.268 70.268 0 1 0-140.536 0Z" fill="#d81e06" p-id="2746" data-spm-anchor-id="a313x.7781069.0.i14" class=""></path><path d="M530.584 261.272c-42.052 0-76.264 34.212-76.264 76.264s34.212 76.264 76.264 76.264c42.056 0 76.264-34.212 76.264-76.264s-34.208-76.264-76.264-76.264z m0 140.532c-35.436 0-64.264-28.828-64.264-64.264s28.832-64.264 64.264-64.264c35.436 0 64.264 28.828 64.264 64.264s-28.824 64.264-64.264 64.264z" fill="#3A312A" p-id="2747"></path><path d="M461.685239 755.994707a70.268 70.264 87.404 1 0 140.383781-6.36497 70.268 70.264 87.404 1 0-140.383781 6.36497Z" fill="#1afa29" p-id="2748" data-spm-anchor-id="a313x.7781069.0.i11" class=""></path><path d="M531.888 676.54c-42.052 0-76.264 34.212-76.264 76.264s34.212 76.264 76.264 76.264c42.056 0 76.268-34.212 76.268-76.264s-34.216-76.264-76.268-76.264z m0 140.532c-35.436 0-64.264-28.828-64.264-64.264s28.828-64.264 64.264-64.264c35.436 0 64.268 28.828 64.268 64.264s-28.832 64.264-64.268 64.264z" fill="#3A312A" p-id="2749"></path><path d="M554.08 138.604c192.96 35.12 339.24 204.08 339.24 407.2 0 160.64-91.52 299.92-225.24 368.52-0.12 0.12-0.24 0.2-0.36 0.32-0.88 0.8-1.8 1.56-2.72 2.32-1.6 1.32-3.2 2.6-4.8 3.88-0.92 0.68-1.84 1.4-2.72 2.08-1.88 1.44-3.8 2.8-5.72 4.16-0.64 0.48-1.28 0.96-1.96 1.4-2.56 1.76-5.16 3.48-7.76 5.12-0.76 0.44-1.52 0.88-2.28 1.36-1.92 1.16-3.88 2.32-5.84 3.44-1 0.56-2 1.08-3 1.64-0.96 0.52-1.88 1.08-2.84 1.56 177.12-44.48 309.24-205.8 309.24-395.8 0-215.64-170.16-394.32-383.24-407.2z" fill="#d81e06" p-id="2750" data-spm-anchor-id="a313x.7781069.0.i10" class=""></path><path d="M530.6 273.284c-4.8 0-9.48 0.52-14 1.56 28.72 6.4 50.24 32.04 50.24 62.68s-21.52 56.32-50.24 62.72c4.52 1.04 9.2 1.56 14 1.56 35.44 0 64.24-28.84 64.24-64.28s-28.8-64.24-64.24-64.24z" fill="#d81e06" p-id="2751" data-spm-anchor-id="a313x.7781069.0.i15" class="selected"></path><path d="M531.88 688.524c-4.8 0-9.52 0.52-14 1.56 28.72 6.4 50.28 32.08 50.28 62.72s-21.56 56.32-50.28 62.72c4.48 1.04 9.2 1.56 14 1.56 35.44 0 64.28-28.84 64.28-64.28s-28.84-64.28-64.28-64.28z" fill="#d81e06" p-id="2752" data-spm-anchor-id="a313x.7781069.0.i12" class=""></path></svg>