<?xml version="1.0" standalone="no"?><!DOCTYPE svg PUBLIC "-//W3C//DTD SVG 1.1//EN" "http://www.w3.org/Graphics/SVG/1.1/DTD/svg11.dtd"><svg t="1673147518079" class="icon" viewBox="0 0 1024 1024" version="1.1" xmlns="http://www.w3.org/2000/svg" p-id="1996" xmlns:xlink="http://www.w3.org/1999/xlink" width="128" height="128"><path d="M520.6016 907.1104c-27.4944 0-53.2992-10.9056-72.7552-30.7712-60.6208-61.8496-164.9152-161.1264-233.984-226.8672-33.4848-31.8976-57.6512-54.8864-66.4064-63.6416C84.1728 522.2912 1.024 363.776 139.1104 218.368 191.0272 163.6864 250.112 136.1408 314.88 136.8064c86.8352 0.7168 160.3584 52.48 197.5808 84.4288 55.1936-61.7472 135.5776-100.096 213.4528-100.096h1.28c77.312 0.4096 145.4592 38.1952 191.8976 106.3936 118.2208 173.568-6.8608 325.6832-47.9744 368.128-11.8272 12.2368-66.0992 68.0448-127.5392 131.2256a30.67392 30.67392 0 0 1-43.4176 0.6144 30.67392 30.67392 0 0 1-0.6144-43.4176c61.3888-63.1296 115.6096-118.9376 127.4368-131.1744 42.24-43.6224 130.9184-159.3344 41.3184-290.816-44.4928-65.3312-101.4784-79.3088-141.4656-79.5136h-0.9728c-69.4272 0-141.9264 39.7312-184.9344 101.5296a30.87872 30.87872 0 0 1-23.1424 13.1072c-9.2672 0.6144-18.3808-3.0208-24.6784-9.8816-0.768-0.8192-82.8416-88.3712-178.9952-89.0368h-1.024c-46.4896 0-90.0096 20.992-129.3824 62.4128-131.8912 138.9056 1.5872 276.0192 7.3216 281.8048 8.1408 8.192 33.3312 32.1536 65.2288 62.5152 69.3248 65.9968 174.1312 165.7344 235.4688 228.352 7.8336 7.9872 18.0736 12.3392 28.8768 12.3392h0.1024c10.8544 0 21.1456-4.4544 28.928-12.4928l39.8848-41.0112c11.8272-12.1344 31.2832-12.4416 43.4176-0.6144s12.4416 31.2832 0.6144 43.4176l-39.8848 41.0112c-19.456 19.968-45.312 31.0272-72.8576 31.0784h-0.2048z" fill="#363F5B" p-id="1997"></path><path d="M761.0368 509.0816c-7.68 0-15.36-2.8672-21.2992-8.6016-12.1856-11.776-12.6464-31.1296-0.8192-43.3152l0.256-0.256c39.3216-40.6528 46.8992-75.6736 23.7056-110.336-17.8688-26.7264-40.4992-38.656-67.1744-35.3792-16.8448 2.048-32.1536-9.8816-34.2528-26.7264a30.7456 30.7456 0 0 1 26.7264-34.2528c49.4592-6.0928 95.232 16.5888 125.7472 62.1568 22.9888 34.3552 49.6128 104.3968-30.6176 187.2384a30.90944 30.90944 0 0 1-22.272 9.472z" fill="#B11EFF" p-id="1998"></path></svg>