<?xml version="1.0" standalone="no"?><!DOCTYPE svg PUBLIC "-//W3C//DTD SVG 1.1//EN" "http://www.w3.org/Graphics/SVG/1.1/DTD/svg11.dtd"><svg t="1673149416960" class="icon" viewBox="0 0 1024 1024" version="1.1" xmlns="http://www.w3.org/2000/svg" p-id="622" xmlns:xlink="http://www.w3.org/1999/xlink" width="128" height="128"><path d="M522.88 99.84c-4.48 0-8.32-3.2-8.32-7.68s3.2-7.68 7.68-7.68h0.64c4.48 0 7.68 3.2 7.68 7.68-0.64 3.84-3.84 7.68-7.68 7.68z" fill="#211D1C" p-id="623"></path><path d="M522.88 983.68c-3.2 0-7.04-1.28-9.6-3.84-70.4-69.12-234.88-140.8-236.8-141.44-0.64 0-1.28-0.64-1.28-0.64-81.28-48.64-131.84-137.6-131.84-232.32 0-87.68 18.56-140.16 33.92-182.4 10.24-28.8 18.56-51.84 18.56-78.72 0-71.68-12.16-96-48.64-132.48-5.12-5.12-5.12-13.44 0-19.2L256.64 83.2c2.56-2.56 5.76-3.84 9.6-3.84h7.04c4.48 0 8.96 2.56 11.52 6.4 24.32 39.68 66.56 63.36 113.28 63.36 46.72 0 88.96-23.68 113.28-63.36 2.56-3.84 7.04-6.4 11.52-6.4s8.96 2.56 11.52 6.4c24.32 39.68 66.56 63.36 113.28 63.36 46.72 0 88.96-23.68 113.28-63.36 2.56-3.84 7.04-6.4 11.52-6.4h7.68c3.84 0 7.04 1.28 9.6 3.84l108.16 108.8c5.12 5.12 5.12 13.44 0 19.2-36.48 36.48-48.64 60.8-48.64 132.48 0 26.88 8.32 49.92 18.56 78.72 15.36 42.24 33.92 94.72 33.92 182.4 0 94.72-50.56 183.68-131.84 232.32-0.64 0-1.28 0.64-1.28 0.64-1.92 0.64-166.4 72.96-236.8 141.44-2.56 3.2-5.76 4.48-8.96 4.48zM288 814.08c13.44 5.76 158.72 70.4 234.24 138.24 75.52-67.2 220.8-131.84 234.24-138.24 72.96-44.16 117.76-124.16 117.76-209.28 0-83.2-17.92-133.12-32.64-173.44-10.88-30.08-19.84-56.32-19.84-87.68 0-68.48 10.88-102.4 47.36-142.08L776.96 108.8c-30.08 41.6-77.44 66.56-129.92 66.56-49.28 0-94.72-22.4-124.8-60.16-30.08 37.76-75.52 60.16-124.8 60.16-51.84 0-99.2-24.32-129.28-65.92L175.36 201.6c36.48 39.68 47.36 73.6 47.36 142.08 0 31.36-9.6 57.6-19.84 87.68-14.72 40.32-32.64 90.24-32.64 173.44 0 85.12 44.8 165.12 117.76 209.28z" fill="#211D1C" p-id="624"></path><path d="M522.88 633.6c-85.12 0-154.24-69.12-154.24-154.24s69.12-154.24 154.24-154.24 154.24 69.12 154.24 154.24C676.48 564.48 607.36 633.6 522.88 633.6z m0-293.12C446.08 340.48 384 403.2 384 479.36c0 76.8 62.08 138.88 138.88 138.88s138.88-62.08 138.88-138.88c-0.64-76.16-62.72-138.88-138.88-138.88z" fill="#00ABE0" p-id="625"></path><path d="M712.96 325.76c-1.92 0-3.2-0.64-5.12-1.92-49.28-40.96-115.84-63.36-185.6-63.36-70.4 0-136.32 22.4-185.6 63.36-2.56 2.56-7.04 2.56-9.6 0l-28.8-23.68c-1.92-1.28-2.56-3.84-2.56-5.76 0-2.56 1.28-4.48 2.56-5.76 60.16-49.92 139.52-76.8 224.64-76.8 84.48 0 164.48 27.52 224.64 76.8 1.92 1.28 2.56 3.84 2.56 5.76 0 2.56-1.28 4.48-2.56 5.76l-28.8 23.68c-1.92 1.28-3.84 1.92-5.76 1.92zM522.88 245.12c71.68 0 138.88 22.4 190.72 63.36l17.28-14.08c-56.32-43.52-129.92-67.84-207.36-67.84-78.72 0-152.32 23.68-208.64 67.84l17.28 14.08c51.84-40.96 119.04-63.36 190.72-63.36zM522.88 746.24c-90.24 0-174.72-26.88-238.72-74.88-1.92-1.28-3.2-3.84-3.2-5.76 0-2.56 1.28-4.48 3.2-5.76l30.72-23.68c2.56-1.92 6.4-1.92 8.96 0 53.12 40.32 123.52 62.08 199.04 62.08 74.88 0 145.92-22.4 199.04-62.08 2.56-1.92 6.4-1.92 8.96 0l30.72 23.68c1.92 1.28 3.2 3.84 3.2 5.76 0 2.56-1.28 4.48-3.2 5.76-64 48.64-149.12 74.88-238.72 74.88zM301.44 665.6c60.16 42.88 138.24 65.92 221.44 65.92s161.28-23.04 221.44-65.92l-17.92-14.08c-55.04 39.68-126.72 62.08-203.52 62.08-76.16 0-148.48-21.76-203.52-62.08l-17.92 14.08z" fill="#211D1C" p-id="626"></path><path d="M525.44 670.08c-3.84 0-7.68-3.2-7.68-7.68s3.2-7.68 7.68-7.68h2.56c3.84 0 7.68 3.2 7.68 7.04 0 4.48-3.2 7.68-7.04 7.68-1.28 0.64-2.56 0.64-3.2 0.64z m-18.56-0.64h-3.84c-3.84-0.64-7.04-3.84-7.04-8.32 0.64-4.48 3.84-7.04 8.32-7.04h3.2c4.48 0.64 7.04 3.84 7.04 8.32-0.64 3.84-3.84 7.04-7.68 7.04z m39.68-1.28c-3.84 0-7.04-2.56-7.68-6.4-0.64-3.84 2.56-7.68 6.4-8.32l2.56-0.64c3.84-0.64 7.68 2.56 8.32 6.4 0.64 3.84-2.56 7.68-6.4 8.32l-3.2 0.64c0.64 0 0.64 0 0 0z m-61.44-1.92h-1.28c-1.28 0-1.92-0.64-3.2-0.64-3.84-0.64-6.4-5.12-5.76-8.96 0.64-3.84 5.12-6.4 8.96-5.76 0.64 0 1.92 0.64 2.56 0.64 3.84 0.64 7.04 5.12 5.76 8.96-0.64 3.2-3.2 5.76-7.04 5.76z m83.2-1.92c-3.2 0-6.4-2.56-7.04-5.76-1.28-3.84 1.28-8.32 5.12-8.96l2.56-0.64c3.84-1.28 8.32 1.28 9.6 5.12 1.28 3.84-1.28 8.32-5.12 9.6l-3.2 0.64h-1.92z m-104.32-3.84c-0.64 0-1.92 0-2.56-0.64-1.28-0.64-1.92-0.64-3.2-1.28-3.84-1.28-5.76-5.76-4.48-9.6 1.28-3.84 5.76-5.76 9.6-4.48l2.56 0.64c3.84 1.28 6.4 5.76 4.48 9.6 0 3.84-3.2 5.76-6.4 5.76z m124.8-2.56c-3.2 0-5.76-1.92-7.04-5.12-1.28-3.84 0.64-8.32 4.48-9.6l2.56-1.28c3.84-1.28 8.32 0 9.6 3.84 1.28 3.84 0 8.32-3.84 9.6-1.28 0.64-1.92 0.64-3.2 1.28-0.64 0.64-1.92 1.28-2.56 1.28z m-144.64-5.76c-1.28 0-1.92 0-3.2-0.64-0.64-0.64-1.92-0.64-2.56-1.28-3.84-1.92-5.12-6.4-3.2-10.24 1.92-3.84 6.4-5.12 10.24-3.2l2.56 1.28c3.84 1.92 5.12 6.4 3.84 10.24-1.92 2.56-5.12 3.84-7.68 3.84z m164.48-3.2c-2.56 0-5.12-1.28-6.4-3.84-1.92-3.84-0.64-8.32 3.2-10.24l2.56-1.28c3.84-1.92 8.32-0.64 10.24 3.2 1.92 3.84 0.64 8.32-3.2 10.24-0.64 0.64-1.92 1.28-2.56 1.28-1.92 0-2.56 0.64-3.84 0.64z m-183.68-7.04c-1.28 0-2.56-0.64-3.84-1.28-0.64-0.64-1.92-1.28-2.56-1.92-3.2-2.56-4.48-7.04-1.92-10.24 2.56-3.2 7.04-4.48 10.24-1.92 0.64 0.64 1.92 1.28 2.56 1.28 3.84 1.92 4.48 7.04 2.56 10.24-1.92 2.56-4.48 3.84-7.04 3.84z m202.24-4.48c-2.56 0-4.48-1.28-6.4-3.2-2.56-3.2-1.28-8.32 1.92-10.24l2.56-1.92c3.2-2.56 8.32-1.92 10.88 1.92 2.56 3.2 1.92 8.32-1.92 10.88-0.64 0.64-1.92 1.28-2.56 1.92-1.92 0-3.2 0.64-4.48 0.64z m-219.52-8.32c-1.92 0-3.2-0.64-4.48-1.92l-2.56-1.92c-3.2-2.56-3.84-7.68-0.64-10.88 2.56-3.2 7.68-3.84 10.88-0.64l2.56 1.92c3.2 2.56 3.84 7.68 1.28 10.88-2.56 1.92-5.12 2.56-7.04 2.56z m236.16-5.12c-1.92 0-3.84-0.64-5.76-2.56-2.56-3.2-2.56-7.68 0.64-10.88l1.92-1.92c3.2-2.56 7.68-2.56 10.88 0.64 2.56 3.2 2.56 7.68-0.64 10.88l-2.56 1.92c-0.64 1.28-2.56 1.92-4.48 1.92zM391.68 614.4c-1.92 0-3.84-0.64-5.12-2.56-0.64-0.64-1.28-1.28-1.92-2.56-2.56-3.2-2.56-7.68 0.64-10.88 3.2-2.56 7.68-2.56 10.88 0.64l0.64 2.56c3.2 3.2 2.56 7.68 0 10.88-1.28 1.28-3.2 1.92-5.12 1.92z m267.52-5.76c-1.92 0-3.84-0.64-5.12-1.92-3.2-2.56-3.2-7.68-0.64-10.88l1.92-1.92c2.56-3.2 7.68-3.2 10.88-0.64s3.84 7.68 0.64 10.88l-1.92 2.56c-1.28 1.28-3.84 1.92-5.76 1.92z m-281.6-10.24c-2.56 0-4.48-1.28-5.76-3.2l-1.92-2.56c-2.56-3.2-1.92-8.32 1.28-10.88 3.2-2.56 8.32-1.92 10.88 1.28l1.92 2.56c2.56 3.2 1.92 8.32-1.28 10.88-1.92 1.28-3.84 1.92-5.12 1.92z m295.04-6.4c-1.28 0-3.2-0.64-4.48-1.28-3.2-2.56-4.48-7.04-1.92-10.24l1.92-2.56c2.56-3.2 7.04-4.48 10.24-1.92 3.2 2.56 4.48 7.04 1.92 10.24l-1.92 2.56c-1.28 1.92-3.2 3.2-5.76 3.2z m-307.2-11.52c-2.56 0-5.12-1.28-6.4-3.84-0.64-0.64-1.28-1.92-1.28-2.56-1.92-3.84-0.64-8.32 2.56-10.24 3.84-1.92 8.32-0.64 10.24 2.56 0.64 0.64 0.64 1.92 1.28 2.56 1.92 3.84 1.28 8.32-2.56 10.24-1.28 0.64-2.56 1.28-3.84 1.28z m318.72-7.04c-1.28 0-2.56 0-3.84-0.64-3.84-1.92-5.12-6.4-3.2-10.24l1.28-2.56c1.92-3.84 6.4-5.12 10.24-3.2 3.84 1.92 5.12 6.4 3.2 10.24l-1.28 2.56c-1.28 1.92-3.84 3.84-6.4 3.84z m-328.96-12.16c-3.2 0-5.76-1.92-7.04-4.48l-1.28-2.56c-1.92-3.84 0-8.32 3.84-10.24 3.84-1.92 8.32 0 10.24 3.84l1.28 2.56c1.92 3.84 0 8.32-3.84 10.24-1.28 0-1.92 0.64-3.2 0.64z m337.92-7.68c-0.64 0-1.92 0-2.56-0.64-3.84-1.28-5.76-5.76-4.48-9.6l1.28-2.56c1.28-3.84 5.76-5.76 9.6-4.48 3.84 1.28 5.76 5.76 4.48 9.6-0.64 1.28-0.64 1.92-1.28 3.2-1.28 2.56-3.84 4.48-7.04 4.48z m-345.6-12.8c-3.2 0-6.4-1.92-7.04-5.12l-0.64-3.2c-1.28-3.84 1.28-8.32 5.12-9.6 3.84-1.28 8.32 1.28 9.6 5.12l0.64 2.56c1.28 3.84-1.28 8.32-5.12 9.6-0.64 0.64-1.92 0.64-2.56 0.64z m352-7.68h-1.92c-3.84-1.28-6.4-5.12-5.12-8.96 0-0.64 0.64-1.92 0.64-2.56 1.28-3.84 5.12-6.4 8.96-5.76 3.84 1.28 6.4 5.12 5.76 8.96 0 1.28-0.64 1.92-0.64 3.2-1.28 2.56-3.84 5.12-7.68 5.12z m-357.12-13.44c-3.84 0-7.04-2.56-7.68-6.4l-0.64-3.2c-0.64-3.84 1.92-8.32 6.4-8.96 3.84-0.64 8.32 1.92 8.96 6.4l0.64 2.56c0.64 3.84-1.92 8.32-6.4 8.96 0 0.64-0.64 0.64-1.28 0.64zM704 512h-1.28c-3.84-0.64-7.04-4.48-6.4-8.32 0-0.64 0-1.92 0.64-2.56 0.64-3.84 4.48-7.04 8.32-6.4 3.84 0.64 7.04 4.48 6.4 8.32 0 1.28 0 1.92-0.64 3.2 0 2.56-3.2 5.76-7.04 5.76z m-364.16-13.44c-3.84 0-7.04-3.2-7.68-7.04v-3.2c0-4.48 3.2-7.68 7.04-7.68 4.48 0 7.68 3.2 7.68 7.04v3.2c0.64 3.84-1.92 7.04-7.04 7.68 0.64 0 0.64 0 0 0z m365.44-8.32c-4.48 0-7.68-3.2-7.68-7.68v-3.84c0-4.48 3.2-7.68 7.68-7.68s7.68 3.2 7.68 7.68v3.84c0 4.48-3.2 7.68-7.68 7.68z m-365.44-13.44c-4.48 0-7.68-3.84-7.68-8.32v-3.2c0-4.48 3.84-7.04 8.32-7.04 4.48 0 7.04 3.84 7.04 8.32v3.2c0 3.84-3.84 7.04-7.68 7.04z m364.8-8.96c-3.84 0-7.04-3.2-7.68-7.04 0-0.64 0-1.92-0.64-2.56-0.64-3.84 2.56-7.68 6.4-8.32 3.84-0.64 7.68 2.56 8.32 6.4 0 1.28 0 1.92 0.64 3.2 0.64 3.84-2.56 7.68-7.04 8.32 0.64 0 0 0 0 0z m-362.24-12.8h-1.28c-3.84-0.64-7.04-4.48-6.4-8.96l0.64-3.2c0.64-3.84 4.48-7.04 8.96-5.76 3.84 0.64 7.04 4.48 5.76 8.96l-0.64 2.56c0 3.84-3.2 6.4-7.04 6.4z m358.4-8.96c-3.2 0-6.4-2.56-7.68-5.76 0-0.64-0.64-1.92-0.64-2.56-1.28-3.84 1.28-8.32 5.76-8.96 3.84-1.28 8.32 1.28 8.96 5.76 0 1.28 0.64 1.92 0.64 3.2 0.64 3.84-1.92 8.32-5.76 8.96 0-0.64-0.64-0.64-1.28-0.64z m-353.28-12.16c-0.64 0-1.28 0-1.92-0.64-3.84-1.28-6.4-5.12-5.12-9.6 0-1.28 0.64-1.92 0.64-3.2 1.28-3.84 5.76-6.4 9.6-5.12 3.84 1.28 6.4 5.76 5.12 9.6 0 0.64-0.64 1.92-0.64 2.56-1.28 4.48-4.48 6.4-7.68 6.4z m347.52-8.32c-3.2 0-5.76-1.92-7.04-5.12-0.64-0.64-0.64-1.92-1.28-2.56-1.28-3.84 0.64-8.32 4.48-9.6 3.84-1.28 8.32 0.64 9.6 4.48 0.64 1.28 0.64 1.92 1.28 3.2 1.28 3.84-0.64 8.32-4.48 9.6h-2.56z m-339.84-12.16c-1.28 0-1.92 0-3.2-0.64-3.84-1.92-5.76-6.4-3.84-10.24l1.28-3.2c1.92-3.84 6.4-5.76 10.24-3.84 3.84 1.92 5.76 6.4 3.84 10.24l-1.28 2.56c-1.28 3.84-4.48 5.12-7.04 5.12z m331.52-7.68c-2.56 0-5.12-1.28-7.04-4.48l-1.28-2.56c-1.92-3.84-0.64-8.32 3.2-10.24 3.84-1.92 8.32-0.64 10.24 3.2l1.28 2.56c1.92 3.84 0.64 8.32-3.2 10.24-1.28 0.64-2.56 1.28-3.2 1.28zM364.8 394.24c-1.28 0-2.56-0.64-3.84-1.28-3.84-1.92-5.12-7.04-2.56-10.24 0.64-0.64 1.28-1.92 1.92-2.56 1.92-3.84 7.04-4.48 10.24-2.56 3.84 1.92 4.48 7.04 2.56 10.24-0.64 0.64-1.28 1.92-1.28 2.56-1.92 2.56-4.48 3.84-7.04 3.84z m311.04-7.68c-2.56 0-5.12-1.28-6.4-3.2-0.64-0.64-1.28-1.28-1.28-2.56-2.56-3.2-1.28-8.32 1.92-10.24 3.2-2.56 8.32-1.28 10.24 1.92 0.64 0.64 1.28 1.92 1.92 2.56 2.56 3.2 1.28 8.32-1.92 10.24-1.92 1.28-3.2 1.28-4.48 1.28z m-298.88-10.24c-1.28 0-3.2-0.64-4.48-1.28-3.2-2.56-3.84-7.04-1.28-10.88 0.64-0.64 1.28-1.92 1.92-2.56 2.56-3.2 7.68-3.84 10.88-1.28 3.2 2.56 3.84 7.04 1.28 10.88-0.64 0.64-1.28 1.28-1.92 2.56-1.92 1.28-3.84 2.56-6.4 2.56z m286.08-7.04c-1.92 0-4.48-0.64-5.76-2.56l-1.92-1.92c-2.56-3.2-2.56-7.68 0.64-10.88 3.2-2.56 7.68-2.56 10.88 0.64l1.92 2.56c2.56 3.2 2.56 7.68-0.64 10.88-1.92 0.64-3.84 1.28-5.12 1.28z m-272-9.6c-1.92 0-3.84-0.64-5.12-1.92-3.2-3.2-3.2-7.68 0-10.88 0.64-0.64 1.28-1.28 1.92-2.56 3.2-3.2 7.68-3.2 10.88 0s3.2 7.68 0 10.88l-1.92 1.92c-1.92 1.92-3.84 2.56-5.76 2.56z m256.64-5.76c-1.92 0-3.84-0.64-5.12-1.92l-1.92-1.92c-3.2-2.56-3.2-7.68-0.64-10.88s7.68-3.2 10.88-0.64l2.56 1.92c3.2 2.56 3.2 7.68 0.64 10.88-1.92 1.28-4.48 2.56-6.4 2.56z m-240.64-8.96c-1.92 0-4.48-0.64-5.76-2.56-2.56-3.2-1.92-8.32 1.28-10.88 0.64-0.64 1.92-1.28 2.56-1.92 3.2-2.56 8.32-1.92 10.88 1.28 2.56 3.2 1.92 8.32-1.28 10.88l-2.56 1.92c-1.92 1.28-3.2 1.28-5.12 1.28z m224-5.12c-1.28 0-3.2-0.64-4.48-1.28-0.64-0.64-1.28-1.28-2.56-1.92-3.2-2.56-4.48-7.04-1.92-10.88 2.56-3.2 7.04-4.48 10.88-1.92 0.64 0.64 1.92 1.28 2.56 1.92 3.2 2.56 3.84 7.04 1.28 10.88-0.64 1.92-3.2 3.2-5.76 3.2zM424.32 332.8c-2.56 0-5.12-1.28-6.4-3.84-1.92-3.84-1.28-8.32 2.56-10.24l2.56-1.92c3.84-1.92 8.32-1.28 10.24 2.56 1.92 3.84 1.28 8.32-2.56 10.24l-1.92 1.92c-1.28 0.64-2.56 1.28-4.48 1.28z m188.8-4.48c-1.28 0-2.56-0.64-3.84-1.28l-2.56-1.28c-3.84-1.92-5.12-6.4-3.2-10.24 1.92-3.84 6.4-5.12 10.24-3.2 0.64 0.64 1.92 1.28 2.56 1.28 3.84 1.92 5.12 6.4 2.56 10.24-0.64 2.56-3.2 4.48-5.76 4.48z m-169.6-6.4c-2.56 0-5.76-1.28-7.04-4.48-1.92-3.84 0-8.32 3.84-10.24l2.56-1.28c3.84-1.92 8.32 0 10.24 3.84 1.92 3.84 0 8.32-3.84 10.24l-2.56 1.28c-1.28 0.64-1.92 0.64-3.2 0.64z m150.4-3.2c-1.28 0-1.92 0-3.2-0.64l-2.56-1.28c-3.84-1.28-5.76-5.76-4.48-9.6 1.28-3.84 5.76-5.76 9.6-4.48 1.28 0.64 1.92 0.64 3.2 1.28 3.84 1.92 5.76 5.76 3.84 9.6-0.64 3.2-3.84 5.12-6.4 5.12zM463.36 313.6c-3.2 0-6.4-1.92-7.04-5.12-1.28-3.84 0.64-8.32 4.48-9.6l3.2-1.28c3.84-1.28 8.32 0.64 9.6 5.12 1.28 3.84-0.64 8.32-5.12 9.6l-2.56 1.28h-2.56z m110.08-2.56h-1.92c-0.64 0-1.92-0.64-2.56-0.64-3.84-1.28-6.4-5.12-5.12-8.96 1.28-3.84 5.12-6.4 8.96-5.12 1.28 0 1.92 0.64 3.2 0.64 3.84 1.28 6.4 5.12 5.12 9.6-1.28 2.56-4.48 4.48-7.68 4.48z m-88.96-3.2c-3.2 0-6.4-2.56-7.68-5.76-0.64-3.84 1.92-8.32 5.76-8.96 1.28 0 1.92-0.64 3.2-0.64 3.84-0.64 8.32 1.92 8.96 5.76 0.64 3.84-1.92 8.32-5.76 8.96-0.64 0-1.92 0.64-2.56 0.64h-1.92z m67.84-1.28h-1.28l-2.56-0.64c-3.84-0.64-7.04-4.48-6.4-8.32 0.64-3.84 4.48-7.04 8.32-6.4l3.2 0.64c3.84 0.64 7.04 4.48 6.4 8.96-1.28 3.2-4.48 5.76-7.68 5.76z m-46.72-1.92c-3.84 0-7.04-3.2-7.68-7.04-0.64-4.48 2.56-7.68 7.04-8.32h3.2c4.48 0 7.68 2.56 8.32 7.04 0 4.48-2.56 7.68-7.04 8.32h-3.2-0.64z m24.96-0.64h-3.2c-4.48 0-7.68-3.84-7.68-7.68 0-4.48 3.2-7.68 7.68-7.68h3.2c4.48 0 7.68 3.84 7.04 7.68 0.64 4.48-3.2 7.68-7.04 7.68zM592 858.88H453.12c-20.48 0-37.12-16.64-37.12-37.12v-7.04c0-20.48 16.64-37.12 37.12-37.12h139.52c20.48 0 37.12 16.64 37.12 37.12v7.04c-0.64 20.48-17.28 37.12-37.76 37.12z m-138.88-65.92c-12.16 0-21.76 9.6-21.76 21.76v7.04c0 12.16 9.6 21.76 21.76 21.76h139.52c12.16 0 21.76-9.6 21.76-21.76v-7.04c0-12.16-9.6-21.76-21.76-21.76H453.12z" fill="#00ABE0" p-id="627"></path></svg>